<mxfile host="app.diagrams.net" agent="Mozilla/5.0 (Windows NT 10.0; Win64; x64) AppleWebKit/537.36 (KHTML, like Gecko) Chrome/139.0.0.0 Safari/537.36" version="28.1.1">
  <diagram name="Page-1" id="T4Xs-ocqWOSXwa28bpAV">
    <mxGraphModel dx="925" dy="586" grid="1" gridSize="10" guides="1" tooltips="1" connect="1" arrows="1" fold="1" page="1" pageScale="1" pageWidth="850" pageHeight="1100" math="0" shadow="0">
      <root>
        <mxCell id="0" />
        <mxCell id="1" parent="0" />
        <mxCell id="9N0o92LJvzCUoI0S7SQk-1" value="Karyawan" style="whiteSpace=wrap;html=1;align=center;" vertex="1" parent="1">
          <mxGeometry x="350" y="140" width="100" height="40" as="geometry" />
        </mxCell>
        <mxCell id="9N0o92LJvzCUoI0S7SQk-2" value="NIP" style="ellipse;whiteSpace=wrap;html=1;align=center;" vertex="1" parent="1">
          <mxGeometry x="180" y="90" width="100" height="40" as="geometry" />
        </mxCell>
        <mxCell id="9N0o92LJvzCUoI0S7SQk-3" value="Nama" style="ellipse;whiteSpace=wrap;html=1;align=center;" vertex="1" parent="1">
          <mxGeometry x="250" y="40" width="100" height="40" as="geometry" />
        </mxCell>
        <mxCell id="9N0o92LJvzCUoI0S7SQk-4" value="Tgl_masuk" style="ellipse;whiteSpace=wrap;html=1;align=center;" vertex="1" parent="1">
          <mxGeometry x="350" y="20" width="100" height="40" as="geometry" />
        </mxCell>
        <mxCell id="9N0o92LJvzCUoI0S7SQk-5" value="Gaji" style="ellipse;whiteSpace=wrap;html=1;align=center;" vertex="1" parent="1">
          <mxGeometry x="450" y="40" width="100" height="40" as="geometry" />
        </mxCell>
        <mxCell id="9N0o92LJvzCUoI0S7SQk-6" value="Kode_dept" style="ellipse;whiteSpace=wrap;html=1;align=center;" vertex="1" parent="1">
          <mxGeometry x="510" y="90" width="100" height="40" as="geometry" />
        </mxCell>
        <mxCell id="9N0o92LJvzCUoI0S7SQk-7" value="" style="endArrow=none;html=1;rounded=0;exitX=1;exitY=0.5;exitDx=0;exitDy=0;entryX=0.5;entryY=0;entryDx=0;entryDy=0;" edge="1" parent="1" source="9N0o92LJvzCUoI0S7SQk-2" target="9N0o92LJvzCUoI0S7SQk-1">
          <mxGeometry relative="1" as="geometry">
            <mxPoint x="330" y="230" as="sourcePoint" />
            <mxPoint x="490" y="230" as="targetPoint" />
          </mxGeometry>
        </mxCell>
        <mxCell id="9N0o92LJvzCUoI0S7SQk-9" value="" style="endArrow=none;html=1;rounded=0;exitX=0.5;exitY=1;exitDx=0;exitDy=0;entryX=0.5;entryY=0;entryDx=0;entryDy=0;" edge="1" parent="1" source="9N0o92LJvzCUoI0S7SQk-3" target="9N0o92LJvzCUoI0S7SQk-1">
          <mxGeometry relative="1" as="geometry">
            <mxPoint x="320" y="130" as="sourcePoint" />
            <mxPoint x="455" y="146" as="targetPoint" />
          </mxGeometry>
        </mxCell>
        <mxCell id="9N0o92LJvzCUoI0S7SQk-12" value="" style="endArrow=none;html=1;rounded=0;exitX=0.5;exitY=1;exitDx=0;exitDy=0;" edge="1" parent="1" source="9N0o92LJvzCUoI0S7SQk-4" target="9N0o92LJvzCUoI0S7SQk-1">
          <mxGeometry relative="1" as="geometry">
            <mxPoint x="370" y="120" as="sourcePoint" />
            <mxPoint x="470" y="180" as="targetPoint" />
          </mxGeometry>
        </mxCell>
        <mxCell id="9N0o92LJvzCUoI0S7SQk-14" value="" style="endArrow=none;html=1;rounded=0;exitX=0.5;exitY=1;exitDx=0;exitDy=0;entryX=0.5;entryY=0;entryDx=0;entryDy=0;" edge="1" parent="1" source="9N0o92LJvzCUoI0S7SQk-5" target="9N0o92LJvzCUoI0S7SQk-1">
          <mxGeometry relative="1" as="geometry">
            <mxPoint x="400" y="100" as="sourcePoint" />
            <mxPoint x="400" y="190" as="targetPoint" />
          </mxGeometry>
        </mxCell>
        <mxCell id="9N0o92LJvzCUoI0S7SQk-16" value="" style="endArrow=none;html=1;rounded=0;exitX=0;exitY=1;exitDx=0;exitDy=0;" edge="1" parent="1" source="9N0o92LJvzCUoI0S7SQk-6">
          <mxGeometry relative="1" as="geometry">
            <mxPoint x="560" y="100" as="sourcePoint" />
            <mxPoint x="400" y="140" as="targetPoint" />
          </mxGeometry>
        </mxCell>
        <mxCell id="9N0o92LJvzCUoI0S7SQk-18" value="Departemen" style="whiteSpace=wrap;html=1;align=center;" vertex="1" parent="1">
          <mxGeometry x="230" y="340" width="100" height="40" as="geometry" />
        </mxCell>
        <mxCell id="9N0o92LJvzCUoI0S7SQk-19" value="Kode_dept" style="ellipse;whiteSpace=wrap;html=1;align=center;fontStyle=4;" vertex="1" parent="1">
          <mxGeometry x="110" y="420" width="100" height="40" as="geometry" />
        </mxCell>
        <mxCell id="9N0o92LJvzCUoI0S7SQk-20" value="Proyek" style="whiteSpace=wrap;html=1;align=center;" vertex="1" parent="1">
          <mxGeometry x="460" y="339" width="100" height="40" as="geometry" />
        </mxCell>
        <mxCell id="9N0o92LJvzCUoI0S7SQk-21" value="Nama_dept" style="ellipse;whiteSpace=wrap;html=1;align=center;" vertex="1" parent="1">
          <mxGeometry x="50" y="379" width="100" height="40" as="geometry" />
        </mxCell>
        <mxCell id="9N0o92LJvzCUoI0S7SQk-22" value="Lokasi" style="ellipse;whiteSpace=wrap;html=1;align=center;" vertex="1" parent="1">
          <mxGeometry x="20" y="330" width="100" height="40" as="geometry" />
        </mxCell>
        <mxCell id="9N0o92LJvzCUoI0S7SQk-23" value="Kode_proyek" style="ellipse;whiteSpace=wrap;html=1;align=center;" vertex="1" parent="1">
          <mxGeometry x="570" y="419" width="100" height="40" as="geometry" />
        </mxCell>
        <mxCell id="9N0o92LJvzCUoI0S7SQk-24" value="Nama_proyek" style="ellipse;whiteSpace=wrap;html=1;align=center;" vertex="1" parent="1">
          <mxGeometry x="660" y="379" width="100" height="40" as="geometry" />
        </mxCell>
        <mxCell id="9N0o92LJvzCUoI0S7SQk-25" value="Deadline" style="ellipse;whiteSpace=wrap;html=1;align=center;" vertex="1" parent="1">
          <mxGeometry x="680" y="320" width="100" height="40" as="geometry" />
        </mxCell>
        <mxCell id="9N0o92LJvzCUoI0S7SQk-26" value="NIP" style="ellipse;whiteSpace=wrap;html=1;align=center;" vertex="1" parent="1">
          <mxGeometry x="630" y="270" width="100" height="40" as="geometry" />
        </mxCell>
        <mxCell id="9N0o92LJvzCUoI0S7SQk-27" value="" style="endArrow=none;html=1;rounded=0;exitX=1;exitY=0.5;exitDx=0;exitDy=0;entryX=0;entryY=0.5;entryDx=0;entryDy=0;" edge="1" parent="1" source="9N0o92LJvzCUoI0S7SQk-22" target="9N0o92LJvzCUoI0S7SQk-18">
          <mxGeometry relative="1" as="geometry">
            <mxPoint x="330" y="230" as="sourcePoint" />
            <mxPoint x="230" y="360" as="targetPoint" />
          </mxGeometry>
        </mxCell>
        <mxCell id="9N0o92LJvzCUoI0S7SQk-29" value="" style="endArrow=none;html=1;rounded=0;exitX=0.5;exitY=0;exitDx=0;exitDy=0;entryX=0;entryY=0.5;entryDx=0;entryDy=0;" edge="1" parent="1" source="9N0o92LJvzCUoI0S7SQk-21" target="9N0o92LJvzCUoI0S7SQk-18">
          <mxGeometry relative="1" as="geometry">
            <mxPoint x="330" y="230" as="sourcePoint" />
            <mxPoint x="490" y="230" as="targetPoint" />
          </mxGeometry>
        </mxCell>
        <mxCell id="9N0o92LJvzCUoI0S7SQk-31" value="" style="endArrow=none;html=1;rounded=0;exitX=0.5;exitY=0;exitDx=0;exitDy=0;entryX=0;entryY=0.5;entryDx=0;entryDy=0;" edge="1" parent="1" source="9N0o92LJvzCUoI0S7SQk-19" target="9N0o92LJvzCUoI0S7SQk-18">
          <mxGeometry relative="1" as="geometry">
            <mxPoint x="330" y="230" as="sourcePoint" />
            <mxPoint x="490" y="230" as="targetPoint" />
          </mxGeometry>
        </mxCell>
        <mxCell id="9N0o92LJvzCUoI0S7SQk-32" value="" style="resizable=0;html=1;whiteSpace=wrap;align=right;verticalAlign=bottom;" connectable="0" vertex="1" parent="9N0o92LJvzCUoI0S7SQk-31">
          <mxGeometry x="1" relative="1" as="geometry" />
        </mxCell>
        <mxCell id="9N0o92LJvzCUoI0S7SQk-33" value="" style="endArrow=none;html=1;rounded=0;exitX=0;exitY=0.5;exitDx=0;exitDy=0;entryX=1;entryY=0.5;entryDx=0;entryDy=0;" edge="1" parent="1" source="9N0o92LJvzCUoI0S7SQk-25" target="9N0o92LJvzCUoI0S7SQk-20">
          <mxGeometry relative="1" as="geometry">
            <mxPoint x="330" y="230" as="sourcePoint" />
            <mxPoint x="490" y="230" as="targetPoint" />
          </mxGeometry>
        </mxCell>
        <mxCell id="9N0o92LJvzCUoI0S7SQk-35" value="" style="endArrow=none;html=1;rounded=0;exitX=0;exitY=0.5;exitDx=0;exitDy=0;entryX=1;entryY=0.5;entryDx=0;entryDy=0;" edge="1" parent="1" source="9N0o92LJvzCUoI0S7SQk-26" target="9N0o92LJvzCUoI0S7SQk-20">
          <mxGeometry relative="1" as="geometry">
            <mxPoint x="330" y="230" as="sourcePoint" />
            <mxPoint x="490" y="230" as="targetPoint" />
          </mxGeometry>
        </mxCell>
        <mxCell id="9N0o92LJvzCUoI0S7SQk-37" value="" style="endArrow=none;html=1;rounded=0;exitX=0;exitY=0.5;exitDx=0;exitDy=0;entryX=1;entryY=0.5;entryDx=0;entryDy=0;" edge="1" parent="1" source="9N0o92LJvzCUoI0S7SQk-24" target="9N0o92LJvzCUoI0S7SQk-20">
          <mxGeometry relative="1" as="geometry">
            <mxPoint x="330" y="230" as="sourcePoint" />
            <mxPoint x="490" y="230" as="targetPoint" />
          </mxGeometry>
        </mxCell>
        <mxCell id="9N0o92LJvzCUoI0S7SQk-39" value="" style="endArrow=none;html=1;rounded=0;exitX=0.5;exitY=0;exitDx=0;exitDy=0;" edge="1" parent="1" source="9N0o92LJvzCUoI0S7SQk-23">
          <mxGeometry relative="1" as="geometry">
            <mxPoint x="330" y="230" as="sourcePoint" />
            <mxPoint x="560" y="359" as="targetPoint" />
          </mxGeometry>
        </mxCell>
        <mxCell id="9N0o92LJvzCUoI0S7SQk-40" value="" style="endArrow=none;html=1;rounded=0;exitX=0.5;exitY=0;exitDx=0;exitDy=0;entryX=0.5;entryY=1;entryDx=0;entryDy=0;" edge="1" parent="1" source="9N0o92LJvzCUoI0S7SQk-18" target="9N0o92LJvzCUoI0S7SQk-1">
          <mxGeometry relative="1" as="geometry">
            <mxPoint x="330" y="230" as="sourcePoint" />
            <mxPoint x="490" y="230" as="targetPoint" />
          </mxGeometry>
        </mxCell>
        <mxCell id="9N0o92LJvzCUoI0S7SQk-41" value="" style="resizable=0;html=1;whiteSpace=wrap;align=right;verticalAlign=bottom;" connectable="0" vertex="1" parent="9N0o92LJvzCUoI0S7SQk-40">
          <mxGeometry x="1" relative="1" as="geometry" />
        </mxCell>
        <mxCell id="9N0o92LJvzCUoI0S7SQk-42" value="mempunyai" style="shape=rhombus;perimeter=rhombusPerimeter;whiteSpace=wrap;html=1;align=center;" vertex="1" parent="1">
          <mxGeometry x="290" y="230" width="110" height="60" as="geometry" />
        </mxCell>
        <mxCell id="9N0o92LJvzCUoI0S7SQk-45" value="" style="endArrow=none;html=1;rounded=0;entryX=0.5;entryY=0;entryDx=0;entryDy=0;exitX=0.5;exitY=1;exitDx=0;exitDy=0;" edge="1" parent="1" source="9N0o92LJvzCUoI0S7SQk-1" target="9N0o92LJvzCUoI0S7SQk-20">
          <mxGeometry relative="1" as="geometry">
            <mxPoint x="330" y="230" as="sourcePoint" />
            <mxPoint x="490" y="230" as="targetPoint" />
          </mxGeometry>
        </mxCell>
        <mxCell id="9N0o92LJvzCUoI0S7SQk-48" value="mengerjakan" style="shape=rhombus;perimeter=rhombusPerimeter;whiteSpace=wrap;html=1;align=center;" vertex="1" parent="1">
          <mxGeometry x="410" y="230" width="110" height="60" as="geometry" />
        </mxCell>
        <mxCell id="9N0o92LJvzCUoI0S7SQk-49" value="" style="endArrow=none;html=1;rounded=0;exitX=1;exitY=0.5;exitDx=0;exitDy=0;entryX=0;entryY=0.5;entryDx=0;entryDy=0;" edge="1" parent="1" source="9N0o92LJvzCUoI0S7SQk-50" target="9N0o92LJvzCUoI0S7SQk-20">
          <mxGeometry relative="1" as="geometry">
            <mxPoint x="330" y="230" as="sourcePoint" />
            <mxPoint x="490" y="230" as="targetPoint" />
          </mxGeometry>
        </mxCell>
        <mxCell id="9N0o92LJvzCUoI0S7SQk-51" value="" style="endArrow=none;html=1;rounded=0;exitX=1;exitY=0.5;exitDx=0;exitDy=0;entryX=0;entryY=0.5;entryDx=0;entryDy=0;" edge="1" parent="1" source="9N0o92LJvzCUoI0S7SQk-18" target="9N0o92LJvzCUoI0S7SQk-50">
          <mxGeometry relative="1" as="geometry">
            <mxPoint x="330" y="360" as="sourcePoint" />
            <mxPoint x="460" y="359" as="targetPoint" />
          </mxGeometry>
        </mxCell>
        <mxCell id="9N0o92LJvzCUoI0S7SQk-50" value="mengerjakan" style="shape=rhombus;perimeter=rhombusPerimeter;whiteSpace=wrap;html=1;align=center;" vertex="1" parent="1">
          <mxGeometry x="348" y="329.5" width="90" height="61" as="geometry" />
        </mxCell>
        <mxCell id="9N0o92LJvzCUoI0S7SQk-52" value="1" style="text;html=1;align=center;verticalAlign=middle;resizable=0;points=[];autosize=1;strokeColor=none;fillColor=none;" vertex="1" parent="1">
          <mxGeometry x="260" y="320" width="30" height="30" as="geometry" />
        </mxCell>
        <mxCell id="9N0o92LJvzCUoI0S7SQk-53" value="N" style="text;html=1;align=center;verticalAlign=middle;resizable=0;points=[];autosize=1;strokeColor=none;fillColor=none;" vertex="1" parent="1">
          <mxGeometry x="366" y="175" width="30" height="30" as="geometry" />
        </mxCell>
        <mxCell id="9N0o92LJvzCUoI0S7SQk-56" value="N" style="text;html=1;align=center;verticalAlign=middle;resizable=0;points=[];autosize=1;strokeColor=none;fillColor=none;" vertex="1" parent="1">
          <mxGeometry x="503" y="315" width="30" height="30" as="geometry" />
        </mxCell>
        <mxCell id="9N0o92LJvzCUoI0S7SQk-57" value="M" style="text;html=1;align=center;verticalAlign=middle;resizable=0;points=[];autosize=1;strokeColor=none;fillColor=none;" vertex="1" parent="1">
          <mxGeometry x="405" y="176" width="30" height="30" as="geometry" />
        </mxCell>
        <mxCell id="9N0o92LJvzCUoI0S7SQk-58" value="1" style="text;html=1;align=center;verticalAlign=middle;resizable=0;points=[];autosize=1;strokeColor=none;fillColor=none;" vertex="1" parent="1">
          <mxGeometry x="320" y="354" width="30" height="30" as="geometry" />
        </mxCell>
        <mxCell id="9N0o92LJvzCUoI0S7SQk-59" value="N" style="text;html=1;align=center;verticalAlign=middle;resizable=0;points=[];autosize=1;strokeColor=none;fillColor=none;" vertex="1" parent="1">
          <mxGeometry x="435" y="354" width="30" height="30" as="geometry" />
        </mxCell>
      </root>
    </mxGraphModel>
  </diagram>
</mxfile>
